<svg width="803" height="174" viewBox="0 0 803 174" fill="none" xmlns="http://www.w3.org/2000/svg">
<path d="M63.744 119.568V130H11.712V38.288H24.064V119.568H63.744ZM134.038 119.888L133.974 130H77.462V38.288H133.974V48.4H89.878V78.864H125.59V88.592H89.878V119.888H134.038ZM213.353 48.72H183.657V130H171.305V48.72H141.545V38.288H213.353V48.72ZM288.978 48.72H259.282V130H246.93V48.72H217.17V38.288H288.978V48.72ZM359.163 119.888L359.099 130H302.587V38.288H359.099V48.4H315.003V78.864H350.715V88.592H315.003V119.888H359.163ZM401.87 82.704C405.454 82.704 408.611 82.2773 411.342 81.424C414.115 80.528 416.419 79.2907 418.254 77.712C420.131 76.0907 421.539 74.1707 422.478 71.952C423.417 69.7333 423.886 67.28 423.886 64.592C423.886 59.1307 422.094 55.0133 418.51 52.24C414.926 49.4667 409.55 48.08 402.382 48.08H388.814V82.704H401.87ZM444.238 130H433.23C430.969 130 429.305 129.125 428.238 127.376L404.43 94.608C403.705 93.584 402.915 92.8587 402.062 92.432C401.251 91.9627 399.971 91.728 398.222 91.728H388.814V130H376.462V38.288H402.382C408.185 38.288 413.198 38.8853 417.422 40.08C421.646 41.232 425.123 42.9173 427.854 45.136C430.627 47.3547 432.675 50.0427 433.998 53.2C435.321 56.3147 435.982 59.8133 435.982 63.696C435.982 66.9387 435.47 69.968 434.446 72.784C433.422 75.6 431.929 78.1387 429.966 80.4C428.046 82.6187 425.678 84.5173 422.862 86.096C420.089 87.6747 416.931 88.8693 413.39 89.68C414.969 90.576 416.334 91.8773 417.486 93.584L444.238 130Z" fill="white"/>
<path d="M571.848 38.288L534.216 130H523.4L510.984 59.408C510.899 58.7253 510.792 57.9787 510.664 57.168C510.579 56.3573 510.493 55.5253 510.408 54.672C510.109 55.5253 509.811 56.3573 509.512 57.168C509.213 57.9787 508.936 58.7253 508.68 59.408L478.856 130H468.104L453 38.288H462.408C463.475 38.288 464.328 38.5653 464.968 39.12C465.608 39.632 465.971 40.3147 466.056 41.168L475.976 106.064C476.061 107.173 476.147 108.389 476.232 109.712C476.317 110.992 476.403 112.315 476.488 113.68C476.957 112.272 477.405 110.928 477.832 109.648C478.301 108.368 478.771 107.173 479.24 106.064L506.632 41.168C506.973 40.4427 507.528 39.7813 508.296 39.184C509.064 38.5867 509.96 38.288 510.984 38.288H513.736C514.803 38.288 515.635 38.5653 516.232 39.12C516.872 39.632 517.299 40.3147 517.512 41.168L528.968 106.064C529.181 107.173 529.352 108.347 529.48 109.584C529.608 110.821 529.736 112.123 529.864 113.488C530.248 112.123 530.632 110.821 531.016 109.584C531.4 108.347 531.784 107.173 532.168 106.064L557.96 41.168C558.173 40.4427 558.707 39.7813 559.56 39.184C560.456 38.5867 561.416 38.288 562.44 38.288H571.848ZM653.65 38.288L642.322 130H630.29L635.41 88.144H590.674L585.554 130H573.522L584.786 38.288H596.818L591.762 79.44H636.498L641.554 38.288H653.65ZM749.005 77.648C749.005 85.456 747.789 92.624 745.357 99.152C742.968 105.68 739.618 111.312 735.309 116.048C731.042 120.741 725.965 124.411 720.077 127.056C714.232 129.659 707.853 130.96 700.941 130.96C695.309 130.96 690.232 129.957 685.709 127.952C681.229 125.947 677.389 123.173 674.189 119.632C671.032 116.048 668.6 111.803 666.893 106.896C665.229 101.989 664.397 96.6133 664.397 90.768C664.397 82.96 665.613 75.792 668.045 69.264C670.477 62.6933 673.848 57.04 678.157 52.304C682.466 47.568 687.544 43.8773 693.389 41.232C699.277 38.5867 705.656 37.264 712.525 37.264C718.157 37.264 723.213 38.288 727.693 40.336C732.216 42.3413 736.056 45.136 739.213 48.72C742.37 52.304 744.781 56.5707 746.445 61.52C748.152 66.4267 749.005 71.8027 749.005 77.648ZM736.717 77.904C736.717 73.2533 736.12 69.0507 734.925 65.296C733.73 61.4987 732.024 58.2773 729.805 55.632C727.629 52.9867 724.941 50.9387 721.741 49.488C718.584 48.0373 715.021 47.312 711.053 47.312C706.018 47.312 701.389 48.336 697.165 50.384C692.984 52.3893 689.357 55.2693 686.285 59.024C683.256 62.7787 680.888 67.3227 679.181 72.656C677.517 77.9467 676.685 83.8773 676.685 90.448C676.685 95.0987 677.261 99.3013 678.413 103.056C679.608 106.811 681.314 110.011 683.533 112.656C685.752 115.301 688.44 117.349 691.597 118.8C694.754 120.208 698.317 120.912 702.285 120.912C707.362 120.912 712.013 119.909 716.237 117.904C720.461 115.899 724.088 113.04 727.117 109.328C730.146 105.573 732.493 101.051 734.157 95.76C735.864 90.4267 736.717 84.4747 736.717 77.904Z" fill="#FCBF49"/>
<line x1="644" y1="84" x2="803" y2="84" stroke="#FCBF49" stroke-width="10"/>
<line x1="647.455" y1="37.765" x2="631.455" y2="172.765" stroke="#FCBF49" stroke-width="13"/>
<line x1="595.451" y1="0.794009" x2="579.451" y2="130.794" stroke="#FCBF49" stroke-width="13"/>
</svg>
